<svg width="304" height="263" viewBox="0 0 304 263" fill="none" xmlns="http://www.w3.org/2000/svg">
<g clip-path="url(#clip0_62_404)">
<path opacity="0.1" d="M176.629 46.382C157.14 45.5688 138.564 38.0149 120.852 29.7519C103.141 21.489 85.5856 12.3322 66.5529 7.95369C54.316 5.13441 40.3214 4.73789 30.4635 12.6144C20.9752 20.1919 17.9103 33.2735 16.2618 45.4109C15.0218 54.5442 14.3025 64.1546 17.692 72.7065C20.0515 78.6408 24.2387 83.6308 27.1356 89.3165C37.2118 109.099 30.0885 133.494 19.1671 152.826C14.045 161.899 8.10289 170.531 4.15081 180.179C0.198722 189.826 -1.63178 200.878 1.8277 210.717C5.25639 220.462 13.4237 227.794 22.2739 232.945C40.2486 243.399 61.4281 246.39 82.0814 248.104C127.799 251.857 173.763 250.231 219.601 248.604C236.565 248 253.605 247.391 270.293 244.236C279.56 242.485 289.129 239.71 295.858 233.009C304.397 224.501 306.516 210.099 300.792 199.43C291.192 181.54 264.65 177.094 257.938 157.893C254.246 147.325 258.039 135.551 263.407 125.749C274.919 104.723 294.221 86.2754 295.237 62.2392C295.936 45.7301 286.658 29.2008 272.311 21.3881C257.275 13.1924 236.423 14.2274 225.331 27.7727C213.908 41.728 193.834 47.0977 176.629 46.382Z" fill="#7FB843"/>
<path d="M67.804 243.635C67.804 243.635 52.4099 229.662 49.5018 211.89C48.3225 204.425 45.1593 197.621 40.4865 192.498C38.2511 190.088 35.8368 187.928 33.2737 186.046" stroke="#535461" stroke-width="2" stroke-miterlimit="10"/>
<path d="M31.39 174.849C32.7391 177.04 33.3492 186.325 33.3492 186.325C33.3492 186.325 26.1364 182.914 24.7845 180.726C24.1354 179.675 23.8607 178.357 24.0211 177.062C24.1815 175.767 24.7636 174.602 25.6396 173.823C26.5155 173.043 27.6135 172.714 28.6919 172.906C29.7703 173.099 30.7408 173.798 31.39 174.849Z" fill="#7FB843"/>
<path d="M44.3266 182.135C44.4666 184.853 40.7804 193.046 40.7804 193.046C40.7804 193.046 36.2657 185.471 36.123 182.753C36.0687 181.457 36.4419 180.187 37.1619 179.22C37.8818 178.252 38.8904 177.663 39.9691 177.582C41.0478 177.501 42.1098 177.933 42.9249 178.785C43.74 179.637 44.2426 180.841 44.3238 182.135H44.3266Z" fill="#7FB843"/>
<path d="M56.8658 203.076C55.847 205.509 49.2164 210.348 49.2164 210.348C49.2164 210.348 48.5082 201.073 49.527 198.64C50.0286 197.496 50.8842 196.634 51.9097 196.24C52.9353 195.846 54.0488 195.95 55.0107 196.532C55.9725 197.113 56.7058 198.125 57.0528 199.348C57.3998 200.572 57.3326 201.911 56.8658 203.076Z" fill="#7FB843"/>
<path d="M63.3845 221.477C62.7212 224.081 56.8686 230.194 56.8686 230.194C56.8686 230.194 54.8618 221.198 55.5251 218.591C55.844 217.339 56.5638 216.291 57.5262 215.677C58.4886 215.063 59.6148 214.933 60.657 215.316C61.6992 215.699 62.5721 216.563 63.0836 217.718C63.5951 218.874 63.7034 220.226 63.3845 221.477Z" fill="#7FB843"/>
<path d="M34.1077 199.632C36.3469 199.995 43.4254 196.157 43.4254 196.157C43.4254 196.157 37.4525 190.216 35.2021 189.853C34.122 189.679 33.0285 190.027 32.1622 190.821C31.2958 191.614 30.7276 192.789 30.5825 194.086C30.4374 195.382 30.7272 196.695 31.3883 197.735C32.0495 198.775 33.0277 199.457 34.1077 199.632Z" fill="#7FB843"/>
<path d="M41.9587 221.04C44.1979 220.58 49.9833 214.38 49.9833 214.38C49.9833 214.38 42.8012 210.858 40.5649 211.319C40.0294 211.424 39.5167 211.656 39.0562 212C38.5958 212.345 38.1967 212.796 37.8821 213.326C37.5674 213.857 37.3435 214.457 37.2231 215.092C37.1027 215.728 37.0883 216.385 37.1807 217.027C37.2731 217.669 37.4705 218.282 37.7615 218.832C38.0524 219.382 38.4312 219.857 38.876 220.23C39.3207 220.603 39.8226 220.867 40.3527 221.006C40.8827 221.145 41.4305 221.157 41.9643 221.04H41.9587Z" fill="#7FB843"/>
<path d="M51.9649 240.594C54.2348 240.594 60.8123 235.657 60.8123 235.657C60.8123 235.657 54.232 230.728 51.9621 230.728C50.8724 230.728 49.8273 231.248 49.0567 232.173C48.2862 233.098 47.8533 234.352 47.8533 235.661C47.8533 236.969 48.2862 238.224 49.0567 239.149C49.8273 240.074 50.8724 240.594 51.9621 240.594H51.9649Z" fill="#7FB843"/>
<path d="M217.351 122.789C217.351 122.789 226.839 102.61 241.142 96.7967C247.147 94.4021 252.345 89.7342 255.954 83.4933C257.646 80.5096 259.107 77.3454 260.317 74.0408" stroke="#535461" stroke-width="2" stroke-miterlimit="10"/>
<path d="M269.296 70.3444C267.667 72.2396 260.085 74.2021 260.085 74.2021C260.085 74.2021 261.946 65.1629 263.575 63.2643C264.361 62.3805 265.405 61.9027 266.482 61.9338C267.559 61.9649 268.582 62.5024 269.332 63.4305C270.082 64.3587 270.499 65.6033 270.492 66.8964C270.485 68.1895 270.056 69.4277 269.296 70.3444Z" fill="#7FB843"/>
<path d="M265.008 86.6855C262.769 87.2164 255.528 83.9166 255.528 83.9166C255.528 83.9166 261.182 77.5321 263.407 77.0112C263.941 76.8689 264.494 76.8561 265.032 76.9736C265.571 77.0912 266.084 77.3367 266.543 77.6957C267.001 78.0548 267.395 78.5202 267.701 79.0645C268.008 79.6089 268.221 80.2212 268.327 80.8657C268.434 81.5101 268.432 82.1736 268.323 82.8173C268.213 83.461 267.997 84.0718 267.688 84.6139C267.378 85.156 266.982 85.6186 266.522 85.9743C266.062 86.33 265.547 86.5718 265.008 86.6855Z" fill="#7FB843"/>
<path d="M249.401 104.387C247.257 103.497 242.384 96.2521 242.384 96.2521C242.384 96.2521 249.942 94.1755 252.091 95.0659C252.608 95.2716 253.085 95.5984 253.495 96.0274C253.906 96.4563 254.241 96.9788 254.482 97.5646C254.723 98.1504 254.864 98.7878 254.898 99.4398C254.932 100.092 254.858 100.745 254.68 101.363C254.502 101.98 254.223 102.549 253.861 103.036C253.498 103.523 253.058 103.918 252.567 104.2C252.076 104.481 251.543 104.643 251 104.675C250.456 104.707 249.913 104.609 249.401 104.387Z" fill="#7FB843"/>
<path d="M235.06 114.589C232.82 114.146 227.01 107.98 227.01 107.98C227.01 107.98 234.172 104.397 236.409 104.841C237.485 105.054 238.447 105.771 239.083 106.835C239.719 107.899 239.977 109.223 239.8 110.515C239.623 111.807 239.025 112.962 238.139 113.725C237.253 114.489 236.15 114.798 235.074 114.586L235.06 114.589Z" fill="#7FB843"/>
<path d="M249.205 76.85C249.203 79.5752 253.32 87.4819 253.32 87.4819C253.32 87.4819 257.431 79.5852 257.431 76.8634C257.446 76.205 257.35 75.5498 257.15 74.9365C256.95 74.3232 256.65 73.7642 256.267 73.2924C255.884 72.8206 255.427 72.4457 254.921 72.1897C254.416 71.9337 253.873 71.8018 253.324 71.8018C252.775 71.8018 252.232 71.9337 251.727 72.1897C251.221 72.4457 250.764 72.8206 250.381 73.2924C249.998 73.7642 249.698 74.3232 249.498 74.9365C249.298 75.5498 249.202 76.205 249.217 76.8634L249.205 76.85Z" fill="#7FB843"/>
<path d="M232.571 89.0344C233.249 91.6353 239.138 97.7006 239.138 97.7006C239.138 97.7006 241.097 88.6883 240.414 86.0874C240.06 84.8824 239.33 83.8894 238.378 83.3175C237.426 82.7456 236.327 82.6395 235.311 83.0214C234.295 83.4033 233.443 84.2436 232.933 85.3651C232.423 86.4867 232.295 87.8021 232.577 89.0344H232.571Z" fill="#7FB843"/>
<path d="M217.773 103.541C218.076 106.229 223.024 113.41 223.024 113.41C223.024 113.41 226.218 104.925 225.916 102.227C225.856 101.573 225.687 100.94 225.421 100.366C225.154 99.7913 224.794 99.2865 224.363 98.8813C223.931 98.4761 223.437 98.1786 222.908 98.0063C222.379 97.834 221.827 97.7903 221.284 97.8779C220.741 97.9656 220.218 98.1827 219.746 98.5165C219.274 98.8503 218.862 99.294 218.535 99.8217C218.208 100.349 217.972 100.95 217.841 101.589C217.711 102.228 217.687 102.891 217.773 103.541Z" fill="#7FB843"/>
<path opacity="0.25" d="M269.296 70.3444C267.667 72.2396 260.085 74.2021 260.085 74.2021C260.085 74.2021 261.946 65.1629 263.575 63.2643C264.361 62.3805 265.405 61.9027 266.482 61.9338C267.559 61.9649 268.582 62.5024 269.332 63.4305C270.082 64.3587 270.499 65.6033 270.492 66.8964C270.485 68.1895 270.056 69.4277 269.296 70.3444Z" fill="black"/>
<path opacity="0.25" d="M265.008 86.6855C262.769 87.2164 255.528 83.9166 255.528 83.9166C255.528 83.9166 261.182 77.5321 263.407 77.0112C263.941 76.8689 264.494 76.8561 265.032 76.9736C265.571 77.0912 266.084 77.3367 266.543 77.6957C267.001 78.0548 267.395 78.5202 267.701 79.0645C268.008 79.6089 268.221 80.2212 268.327 80.8657C268.434 81.5101 268.432 82.1736 268.323 82.8173C268.213 83.461 267.997 84.0718 267.688 84.6139C267.378 85.156 266.982 85.6186 266.522 85.9743C266.062 86.33 265.547 86.5718 265.008 86.6855Z" fill="black"/>
<path opacity="0.25" d="M249.401 104.387C247.257 103.497 242.384 96.2521 242.384 96.2521C242.384 96.2521 249.942 94.1755 252.091 95.0659C252.608 95.2716 253.085 95.5984 253.495 96.0274C253.906 96.4563 254.241 96.9788 254.482 97.5646C254.723 98.1504 254.864 98.7878 254.898 99.4398C254.932 100.092 254.858 100.745 254.68 101.363C254.502 101.98 254.223 102.549 253.861 103.036C253.498 103.523 253.058 103.918 252.567 104.2C252.076 104.481 251.543 104.643 251 104.675C250.456 104.707 249.913 104.609 249.401 104.387Z" fill="black"/>
<path opacity="0.25" d="M235.06 114.589C232.82 114.146 227.01 107.98 227.01 107.98C227.01 107.98 234.172 104.397 236.409 104.841C237.485 105.054 238.447 105.771 239.083 106.835C239.719 107.899 239.977 109.223 239.8 110.515C239.623 111.807 239.025 112.962 238.139 113.725C237.253 114.489 236.15 114.798 235.074 114.586L235.06 114.589Z" fill="black"/>
<path opacity="0.25" d="M249.205 76.85C249.203 79.5752 253.32 87.4819 253.32 87.4819C253.32 87.4819 257.431 79.5852 257.431 76.8634C257.446 76.205 257.35 75.5498 257.15 74.9365C256.95 74.3232 256.65 73.7642 256.267 73.2924C255.884 72.8206 255.427 72.4457 254.921 72.1897C254.416 71.9337 253.873 71.8018 253.324 71.8018C252.775 71.8018 252.232 71.9337 251.727 72.1897C251.221 72.4457 250.764 72.8206 250.381 73.2924C249.998 73.7642 249.698 74.3232 249.498 74.9365C249.298 75.5498 249.202 76.205 249.217 76.8634L249.205 76.85Z" fill="black"/>
<path opacity="0.25" d="M232.571 89.0344C233.249 91.6353 239.138 97.7006 239.138 97.7006C239.138 97.7006 241.097 88.6883 240.414 86.0874C240.06 84.8824 239.33 83.8894 238.378 83.3175C237.426 82.7456 236.327 82.6395 235.311 83.0214C234.295 83.4033 233.443 84.2436 232.933 85.3651C232.423 86.4867 232.295 87.8021 232.577 89.0344H232.571Z" fill="black"/>
<path opacity="0.25" d="M217.773 103.541C218.076 106.229 223.024 113.41 223.024 113.41C223.024 113.41 226.218 104.925 225.916 102.227C225.856 101.573 225.687 100.94 225.421 100.366C225.154 99.7913 224.794 99.2865 224.363 98.8813C223.931 98.4761 223.437 98.1786 222.908 98.0063C222.379 97.834 221.827 97.7903 221.284 97.8779C220.741 97.9656 220.218 98.1827 219.746 98.5165C219.274 98.8503 218.862 99.294 218.535 99.8217C218.208 100.349 217.972 100.95 217.841 101.589C217.711 102.228 217.687 102.891 217.773 103.541Z" fill="black"/>
<path d="M217.897 122.389C217.897 122.389 219.761 99.3235 230.861 87.0584C235.543 81.9468 238.719 75.151 239.913 67.6897C240.456 64.1427 240.727 60.5433 240.722 56.9368" stroke="#535461" stroke-width="2" stroke-miterlimit="10"/>
<path d="M247.68 49.1544C246.84 51.6813 240.559 57.1653 240.559 57.1653C240.559 57.1653 239.21 47.9951 240.058 45.4682C240.467 44.2548 241.26 43.2858 242.263 42.7744C243.266 42.263 244.398 42.2511 245.409 42.7413C246.419 43.2314 247.226 44.1835 247.652 45.3881C248.078 46.5927 248.088 47.9511 247.68 49.1645V49.1544Z" fill="#7FB843"/>
<path d="M249.278 66.1977C247.422 67.7636 239.678 68.2777 239.678 68.2777C239.678 68.2777 242.695 59.6955 244.551 58.1296C244.991 57.7342 245.493 57.4488 246.026 57.2903C246.56 57.1318 247.114 57.1035 247.657 57.2071C248.2 57.3106 248.72 57.5439 249.187 57.8931C249.653 58.2422 250.057 58.7002 250.373 59.2399C250.689 59.7796 250.912 60.39 251.029 61.035C251.145 61.68 251.152 62.3465 251.05 62.995C250.948 63.6434 250.739 64.2607 250.434 64.8102C250.13 65.3598 249.737 65.8304 249.278 66.1943V66.1977Z" fill="#7FB843"/>
<path d="M240.977 89.9818C238.715 90.2103 231.813 85.9494 231.813 85.9494C231.813 85.9494 238.026 80.3713 240.288 80.1428C241.374 80.0332 242.452 80.446 243.284 81.2905C244.117 82.1349 244.636 83.3418 244.727 84.6456C244.818 85.9495 244.475 87.2434 243.771 88.2429C243.068 89.2424 242.063 89.8654 240.977 89.9751V89.9818Z" fill="#7FB843"/>
<path d="M231.317 106.276C229.12 106.948 221.72 104.169 221.72 104.169C221.72 104.169 227.057 97.4116 229.255 96.7261C230.309 96.3977 231.43 96.5858 232.369 97.249C233.308 97.9123 233.99 98.9964 234.263 100.263C234.537 101.529 234.38 102.874 233.828 104.002C233.275 105.13 232.372 105.948 231.317 106.276Z" fill="#7FB843"/>
<path d="M231.513 64.8939C232.431 67.3838 238.852 72.6225 238.852 72.6225C238.852 72.6225 239.944 63.4019 239.026 60.9119C238.568 59.7469 237.749 58.843 236.744 58.3932C235.739 57.9433 234.627 57.9834 233.646 58.5046C232.665 59.0259 231.893 59.9871 231.494 61.1829C231.096 62.3787 231.103 63.7141 231.513 64.9039V64.8939Z" fill="#7FB843"/>
<path d="M220.418 84.1216C221.916 86.168 229.344 88.8495 229.344 88.8495C229.344 88.8495 228.09 79.6591 226.593 77.6127C226.239 77.1156 225.807 76.7077 225.321 76.4128C224.835 76.118 224.306 75.942 223.763 75.895C223.22 75.8481 222.674 75.9312 222.158 76.1395C221.642 76.3479 221.166 76.6772 220.757 77.1085C220.348 77.5397 220.014 78.0643 219.775 78.6517C219.536 79.2391 219.397 79.8776 219.366 80.5301C219.334 81.1826 219.411 81.8361 219.592 82.4527C219.773 83.0692 220.053 83.6365 220.418 84.1216Z" fill="#7FB843"/>
<path d="M211.773 104.592C212.959 106.911 219.903 111.061 219.903 111.061C219.903 111.061 219.962 101.75 218.784 99.4276C218.197 98.3555 217.286 97.5998 216.243 97.3209C215.2 97.042 214.108 97.2618 213.198 97.9336C212.287 98.6054 211.631 99.6764 211.368 100.919C211.104 102.163 211.254 103.48 211.786 104.592H211.773Z" fill="#7FB843"/>
<path d="M203.622 32.0605C204.087 30.0141 204.646 27.9576 205.038 25.8843C204.568 27.9576 204.005 30.0208 203.622 32.0605Z" fill="url(#paint0_linear_62_404)"/>
<path d="M201.54 51.7722C201.5 51.6915 201.472 51.6109 201.442 51.537C201.442 51.5034 201.414 51.4765 201.402 51.4429C201.341 51.4774 201.279 51.5077 201.215 51.5336C201.092 51.5907 200.966 51.6445 200.837 51.6882C200.708 51.7319 200.655 51.7554 200.557 51.7823C200.476 51.8159 200.393 51.8417 200.308 51.8596L200.33 51.92C200.434 51.8932 200.535 51.8696 200.638 51.836L200.666 52.2527C200.784 52.2527 200.893 52.2326 200.999 52.2326C201.05 52.2292 201.1 52.2292 201.151 52.2326C201.369 52.2326 201.559 52.2326 201.71 52.2326C201.652 52.0813 201.59 51.9234 201.54 51.7722ZM258.358 160.353C257.042 158.226 254.417 135.396 254.417 135.396C254.417 135.396 249.253 119.163 250.661 112.684C252.069 106.206 246.815 89.6293 246.815 89.6293C246.815 89.6293 243.344 87.8181 243.157 85.1298C243.157 85.1298 228.986 79.7533 228.323 75.721C227.785 72.4145 218.997 70.0421 215.839 69.2928C214.877 64.6287 213.908 60.2771 213.194 57.9014C213.001 57.1621 212.819 56.5236 212.651 56.0196C211.445 52.3233 207.717 51.9873 205.013 52.283C204.896 51.653 204.678 51.0562 204.372 50.5255C204.327 50.3431 204.239 50.1806 204.117 50.0584C204.059 49.9991 203.998 49.9451 203.933 49.8972C203.884 49.7882 203.819 49.6904 203.742 49.6082C203.666 49.5251 203.581 49.4529 203.49 49.3931C203.425 49.3509 203.358 49.3138 203.289 49.2822C203.127 49.2081 202.959 49.1529 202.788 49.1176C202.589 49.0683 202.387 49.0369 202.183 49.0235C202.677 48.764 203.118 48.3774 203.474 47.8911C203.716 47.5496 203.896 47.1513 204.003 46.7217C204.091 46.3644 204.131 45.9921 204.12 45.6195C204.048 45.7731 203.963 45.9182 203.868 46.053C203.986 44.5644 203.331 43.0522 202.956 41.5703C202.501 39.6411 202.417 37.6133 202.71 35.6394C203.085 32.6622 204.014 29.6514 204.644 26.6204C204.645 26.6037 204.645 26.5867 204.644 26.57C204.974 25.0647 205.178 23.5237 205.254 21.9698C205.363 18.8346 204.694 15.7062 203.619 12.8499C202.665 10.3196 201.257 7.82965 199.102 6.8014C197.501 6.02517 195.707 6.14951 193.983 6.02181C190.114 5.73283 186.425 4.09973 182.748 2.61448C179.07 1.12923 175.286 -0.221609 171.415 0.0371336C167.544 0.295876 163.561 2.53719 161.795 6.65019C161.235 7.93382 160.913 9.36195 160.244 10.5683C158.99 12.8432 156.746 13.9823 154.873 15.5516C153.001 17.1209 151.352 19.3487 150.675 22.0067C150.305 23.4387 150.253 24.9619 150.524 26.4255C150.584 26.756 150.663 27.0815 150.759 27.4C151.024 28.2879 151.439 29.101 151.976 29.7892C152.382 30.2978 152.848 30.7315 153.359 31.0762C154.001 31.5035 154.688 31.8245 155.402 32.0305C155.377 32.1313 155.352 32.2388 155.324 32.343C155.279 32.5144 155.24 32.679 155.198 32.8638C155.105 33.2771 155.019 33.6972 154.946 34.1206C154.943 34.1507 154.943 34.1812 154.946 34.2113C154.602 36.1226 154.429 38.0726 154.431 40.028C154.43 40.9527 154.47 41.8769 154.548 42.7969C155.668 56.4329 165.044 67.1892 176.629 67.8882C177.027 67.9117 177.427 67.9251 177.833 67.9251C178.017 67.9251 178.199 67.9251 178.392 67.9251C178.574 68.2141 178.754 68.5098 178.924 68.7988C179.095 69.0878 179.252 69.3835 179.4 69.6725L178.994 69.1684L178.588 68.7215C178.478 68.9028 178.356 69.0725 178.222 69.2289C177.957 69.1171 177.687 69.0251 177.413 68.9534C176.251 68.6442 174.482 68.53 172.154 69.3734C170.013 70.1429 167.396 71.7256 164.333 74.7331L149.412 85.486L141.34 91.38L138.432 99.9151C138.432 99.9151 136.246 110.056 133.814 121.676C133.719 121.71 133.626 121.744 133.534 121.784C133.337 121.757 133.139 121.743 132.941 121.744C131.529 121.74 130.172 122.392 129.153 123.565C128.134 124.737 127.534 126.338 127.477 128.031C122.641 135.087 122.366 142.144 123.503 145.383C123.606 145.687 123.735 145.976 123.889 146.247C124.633 147.537 126.025 150.864 127.435 154.409C127.399 154.701 127.376 154.947 127.365 155.131C127.363 155.192 127.363 155.252 127.365 155.313C127.365 155.313 128.205 170.538 125.406 174.903C124.793 175.854 124.885 177.104 125.406 178.489C127.281 183.469 134.696 190.119 134.696 190.119C134.696 190.119 143.588 190.062 148.542 189.413C148.528 190.011 148.517 190.606 148.506 191.187C148.394 197.061 148.394 201.984 148.394 201.984L148.209 208.143C148.209 208.143 146.53 221.124 145.69 224.703C145.161 226.948 145.771 247.731 146.303 263.01H233.915C234.945 253.971 233.492 226.507 233.492 226.507C233.492 226.507 232.112 219.407 232.062 213.217C232.059 213.211 232.058 213.203 232.058 213.196C232.058 213.188 232.059 213.181 232.062 213.174C232.062 212.633 232.062 212.105 232.079 211.588L232.714 211.561L233.856 211.514H233.96C233.96 211.514 233.988 211.386 234.052 211.178C234.203 210.659 234.409 210.165 234.665 209.709C235.152 208.846 235.913 207.999 237.058 207.942C237.691 207.912 238.67 207.297 239.776 206.389C239.783 206.391 239.791 206.391 239.798 206.389C242.773 203.973 246.706 199.514 247.66 198.782C248.973 197.774 255.259 191.053 255.259 191.053C255.259 191.053 256.197 189.628 257.196 187.911L257.233 187.851C258.475 185.7 259.797 183.129 259.472 182.32C258.912 180.868 259.847 177.397 259.847 177.397C262.766 170.982 259.673 162.48 258.358 160.353ZM204.235 56.9975C204.262 57.0978 204.279 57.2015 204.285 57.3066C204.215 57.1957 204.145 57.0781 204.075 56.9706L204.008 56.863L203.961 56.7824L204.067 56.6077C204.067 56.6077 204.067 56.6077 204.067 56.6312C204.141 56.7401 204.198 56.8642 204.235 56.9975ZM203.295 54.0202C202.989 54.0942 202.749 54.1614 202.592 54.2118C202.393 53.7884 202.203 53.365 202.032 52.9349C202.481 53.2474 202.904 53.6108 203.295 54.0202ZM202.768 54.5512C202.768 54.5445 202.768 54.5377 202.768 54.531L202.791 54.5512C202.906 54.6419 203.017 54.7293 203.121 54.82C203.213 54.9006 203.297 54.9779 203.381 55.0586C203.325 55.1762 203.264 55.2971 203.202 55.3946C203.104 55.2098 203.012 55.0317 202.922 54.8469C202.866 54.7729 202.816 54.6721 202.768 54.5512ZM201.089 50.4046C201.63 50.3405 202.174 50.3405 202.715 50.4046C202.791 50.4046 202.858 50.4214 202.925 50.4348C203.077 50.463 203.226 50.5091 203.37 50.5726C203.701 51.1281 203.905 51.7781 203.961 52.4577L203.81 52.4846L203.661 52.5182C203.381 52.5753 203.101 52.6324 202.883 52.6862L202.603 52.7568C202.231 52.8542 202.015 52.9281 202.007 52.9315C201.971 52.8408 201.934 52.7568 201.895 52.6694C201.834 52.5249 201.769 52.3771 201.713 52.2326C201.657 52.0881 201.584 51.9234 201.526 51.7722C201.486 51.6915 201.458 51.6109 201.428 51.537C201.428 51.5034 201.4 51.4765 201.388 51.4429C201.372 51.4072 201.358 51.3702 201.346 51.332C201.176 50.9153 201.019 50.4986 200.868 50.0887C200.851 50.0484 200.837 50.0047 200.823 49.9644L201.036 49.9476V50.0349L201.089 50.4046ZM134.309 258.857C134.287 253.853 133.985 248.44 133.145 243.359C132.787 241.199 132.417 239.038 132.042 236.914C131.947 236.383 131.855 235.859 131.762 235.335L130.9 235.473H130.822C128.471 222.163 126.013 210.435 126.013 210.435C126.013 210.435 121.132 188.059 121.697 186.275C121.77 186.043 121.678 185.418 121.471 184.5C120.29 179.413 115.358 165.394 113.634 160.602C113.634 160.582 113.62 160.558 113.614 160.541C113.334 159.738 113.133 159.197 113.071 159.039L113.477 151.889L113.499 151.459L113.553 150.545L113.53 150.521L113.553 150.098C113.553 150.098 109.293 145.904 102.077 142.876C101.797 142.755 101.5 142.638 101.206 142.524C101.568 139.63 102.046 136.364 102.67 133.182C102.729 132.863 102.793 132.554 102.861 132.241C102.919 131.929 102.987 131.626 103.054 131.32C103.16 130.823 103.275 130.332 103.392 129.849C103.781 129.701 104.165 129.536 104.543 129.361L104.688 129.294C109.343 127.12 113.184 122.994 115.5 117.681C117.815 112.367 118.449 106.227 117.283 100.396C116.619 97.0886 115.391 93.9824 113.678 91.2724C113.55 91.0641 113.413 90.8558 113.275 90.6508C113.138 90.4458 112.973 90.2173 112.819 90.009C113.628 87.8012 114.583 85.7011 114.661 83.5538C114.675 83.2819 114.675 83.0092 114.661 82.7373V82.7037C114.557 81.3226 114.048 79.9247 112.861 78.4563C111.129 76.3023 108.663 75.2102 106.197 74.686C103.731 74.1618 101.218 74.1484 98.7378 73.7955C94.6262 73.2041 90.6209 71.6819 86.5093 71.2148C81.4448 70.6518 76.346 71.6946 71.7225 74.2391C68.6633 75.9193 65.5649 78.8562 65.3802 82.8851C65.229 86.2152 67.1603 89.4075 66.6733 92.6972C66.189 95.9298 63.4461 98.4735 63.6868 101.743C63.7792 103.02 64.325 104.163 65.0079 105.181C65.243 105.517 65.4921 105.853 65.7496 106.189C66.746 107.456 67.8432 108.672 68.4002 110.268C68.4226 110.335 68.445 110.403 68.4646 110.47C68.9376 112.046 68.7249 114.038 67.5549 114.942C67.5614 114.948 67.5663 114.957 67.5689 114.966C67.5857 114.993 67.6025 115.013 67.6165 115.04C67.6182 115.034 67.6182 115.028 67.6165 115.023C68.0313 115.613 68.5905 116.032 69.2147 116.219L69.4526 116.307C69.2595 116.559 69.0775 116.821 68.8928 117.096L68.7725 117.288C68.464 117.786 68.1835 118.308 67.9328 118.85C67.79 119.153 67.6529 119.455 67.5381 119.758C67.1545 120.679 66.8767 121.66 66.7125 122.671C66.413 124.896 66.8356 127.214 66.3822 129.392C65.8224 132.08 64.0507 134.143 63.0514 136.64C61.1594 141.344 62.2314 146.865 62.612 152.06C63.1298 159.117 62.2901 166.204 61.4533 173.213C61.0092 176.941 60.5651 180.672 60.121 184.406C59.0014 193.779 57.8818 203.152 56.7623 212.525C56.3536 215.959 55.8694 219.582 53.9633 222.233H53.9829C53.9829 222.233 53.9829 222.253 53.9633 222.26C54.5355 222.56 55.1441 222.749 55.7658 222.818C58.2541 223.117 60.8907 221.672 63.1298 220.093C64.9031 218.862 66.5824 217.447 68.1483 215.862C67.9188 216.87 67.6725 217.969 67.4094 219.152C67.4102 219.163 67.4102 219.174 67.4094 219.185C64.2494 233.635 59.1665 260.124 59.1665 260.124C59.1665 260.124 58.7047 261.276 58.1057 262.993H137.036C136.112 261.649 135.253 260.362 134.581 259.324L134.309 258.857ZM75.8677 125.252C75.8873 125.211 75.9013 125.174 75.9209 125.137C75.9209 125.245 75.9209 125.349 75.9209 125.45C75.9209 125.551 75.9209 125.642 75.9209 125.736C75.9209 125.83 75.9209 125.82 75.9209 125.867C75.9209 126.004 75.8957 126.142 75.8761 126.28C75.8761 126.28 75.8761 126.297 75.8761 126.31L76.156 126.435L76.4807 126.596C78.3989 127.505 80.3414 128.329 82.3081 129.066C82.5096 129.143 82.7139 129.217 82.9182 129.287L82.9602 129.704C83.0106 130.131 83.0582 130.564 83.103 130.998C83.103 130.998 83.103 131.018 83.103 131.031C83.2289 132.231 83.3521 133.427 83.4612 134.597C83.4612 134.597 78.3224 132.244 78.3868 135.816C78.3838 135.88 78.3838 135.944 78.3868 136.008C78.3811 136.093 78.3811 136.178 78.3868 136.263C78.4344 139.046 79.1593 140.696 79.3048 141.542C79.2961 141.577 79.2808 141.61 79.26 141.636C79.1359 141.961 79.0931 142.322 79.1369 142.675C79.132 143.276 79.1713 143.876 79.2544 144.469C79.1033 144.58 78.955 144.691 78.8066 144.805C78.6947 144.889 78.5883 144.983 78.4791 145.077C77.7925 142.218 76.8942 139.438 75.795 136.771C75.0253 134.869 74.1604 132.886 74.1688 130.8C74.1688 130.665 74.1688 130.527 74.1828 130.39C74.214 129.785 74.3099 129.187 74.4683 128.612C74.5327 128.394 74.6026 128.179 74.681 127.967C74.8639 127.464 75.0685 126.973 75.294 126.495C75.4395 126.179 75.5934 125.867 75.7418 125.551C75.7894 125.457 75.8342 125.359 75.8789 125.265L75.8677 125.252ZM201.54 51.7722C201.5 51.6915 201.472 51.6109 201.442 51.537C201.442 51.5034 201.414 51.4765 201.402 51.4429C201.341 51.4774 201.279 51.5077 201.215 51.5336C201.092 51.5907 200.966 51.6445 200.837 51.6882C200.708 51.7319 200.655 51.7554 200.557 51.7823L200.308 51.8596L200.33 51.92C200.434 51.8932 200.535 51.8696 200.638 51.836L200.666 52.2527C200.784 52.2527 200.893 52.2326 200.999 52.2326H201.151C201.369 52.2326 201.559 52.2326 201.71 52.2326C201.652 52.0813 201.59 51.9234 201.54 51.7722Z" fill="url(#paint1_linear_62_404)"/>
<path d="M140.383 101.128L138.704 102.018C138.704 102.018 127.757 153.075 127.757 157.201C127.757 161.328 150.969 184.288 150.969 184.288L154.59 154.94C154.59 154.94 149.39 87.6364 140.383 101.128Z" fill="#E8F5FF"/>
<path d="M191.298 84.8877L181.6 78.8123C181.057 76.0322 180.093 73.3954 178.756 71.0333C177.337 68.5735 175.451 66.1575 173.1 64.8974C167.158 61.6984 198.234 44.907 198.234 44.907C198.724 46.9241 199.3 48.9093 199.961 50.8547C201.562 55.5994 204.218 61.7353 207.641 63.4827C213.46 66.4565 191.298 84.8877 191.298 84.8877Z" fill="#FFC1C7"/>
<path opacity="0.1" d="M199.961 50.8547C198.633 56.4613 195.872 61.4255 192.067 65.0462C188.262 68.6669 183.606 70.7612 178.756 71.0333C177.337 68.5735 175.451 66.1575 173.1 64.8974C167.158 61.6984 198.234 44.907 198.234 44.907C198.724 46.9241 199.3 48.9093 199.961 50.8547Z" fill="black"/>
<path d="M200.834 42.3765C200.835 47.8752 199.478 53.2508 196.934 57.8234C194.391 62.396 190.774 65.9602 186.543 68.0652C182.312 70.1702 177.656 70.7215 173.164 69.6494C168.672 68.5772 164.545 65.9297 161.306 62.0418C158.068 58.1539 155.862 53.2001 154.968 47.8071C154.075 42.4141 154.533 36.8241 156.286 31.744C158.039 26.6639 161.007 22.322 164.816 19.2675C168.624 16.2129 173.101 14.5829 177.682 14.5835C180.726 14.5666 183.743 15.274 186.558 16.6647C189.373 18.0554 191.931 20.1019 194.083 22.686C196.236 25.2702 197.941 28.3407 199.1 31.7204C200.258 35.1 200.848 38.7218 200.834 42.3765Z" fill="#FFC1C7"/>
<path d="M204.176 81.319L197.862 99.0076L192.292 110.748H174.463L169.262 94.6963L171.37 78.0495H184.987L193.778 77.4547L196.748 76.2651L198.662 77.5689L204.176 81.319Z" fill="#575A89"/>
<path opacity="0.1" d="M202.001 57.7399C202.001 57.7399 205.94 58.748 202.413 62.2192C198.886 65.6903 186.719 76.7289 186.719 76.7289C186.719 76.7289 190.993 81.2989 190.109 86.6518L204.269 77.1758L206.788 62.0142C206.788 62.0142 207.07 57.4576 202.001 57.7399Z" fill="black"/>
<path opacity="0.1" d="M189.504 76.729L180.497 78.5133C180.497 78.5133 182.356 86.7628 181.427 89.105C181.398 89.1777 181.375 89.253 181.357 89.3301L177.682 101.256L180.436 110.621L189.969 95.0124L186.719 89.105C186.719 89.105 190.154 83.6411 192.197 81.7459C194.24 79.8507 189.504 76.729 189.504 76.729Z" fill="black"/>
<path d="M189.504 76.2686L180.497 78.0495C180.497 78.0495 182.356 86.299 181.427 88.6412C181.398 88.7139 181.375 88.7892 181.357 88.8663L177.682 100.792L180.436 110.157L189.969 94.5385L186.719 88.6311C186.719 88.6311 190.154 83.1672 192.197 81.272C194.24 79.3768 189.504 76.2686 189.504 76.2686Z" fill="#DCE6F2"/>
<path d="M202.379 56.8495C202.379 56.8495 206.317 57.8576 202.788 61.3288C199.259 64.8 186.719 76.729 186.719 76.729C186.719 76.729 191.363 80.4085 190.481 85.7581L204.641 76.2854L207.16 61.1238C207.16 61.1238 207.44 56.5672 202.379 56.8495Z" fill="#575A89"/>
<path opacity="0.1" d="M179.375 72.085C179.375 72.085 180.234 74.0138 184.027 77.4917C184.027 77.4917 177.712 81.524 180.128 87.1928L170.469 84.1686L168.982 78.5938L179.375 72.085Z" fill="black"/>
<path d="M179.003 71.6414C179.003 71.6414 179.862 73.5702 183.654 77.0481C183.654 77.0481 177.34 81.0603 179.756 86.7459L170.099 83.7216L168.613 78.1503L179.003 71.6414Z" fill="#575A89"/>
<path opacity="0.1" d="M204.176 81.3192L197.862 99.0078L192.303 110.749H174.463L169.262 94.6965L171.367 78.0496H175.154C175.093 81.9341 176.274 86.4974 176.198 88.1943C176.069 90.9834 179.663 106.031 179.663 106.031C179.663 106.031 187.184 91.4269 190.154 90.1265C192.02 89.31 195.975 82.5154 198.66 77.5691L204.176 81.3192Z" fill="black"/>
<path d="M229.05 174.403L228.409 175.37C228.409 175.37 233.053 203.352 231.768 209.706C231.55 210.851 231.425 212.019 231.396 213.194V213.244C231.169 219.709 232.795 228.1 232.795 228.1C232.795 228.1 234.094 252.832 233.355 263.003H146.415C145.905 247.963 145.357 228.476 145.855 226.316C146.695 222.751 148.374 209.817 148.374 209.817L148.559 203.688C148.559 203.688 148.559 197.763 148.71 191.164C148.774 188.197 148.869 185.082 149.007 182.319C149.183 178.845 149.429 175.918 149.768 174.48C149.976 173.39 150.096 172.278 150.126 171.16C150.126 171.056 150.126 170.948 150.143 170.841C150.143 170.505 150.171 170.142 150.182 169.769C150.182 169.665 150.182 169.56 150.182 169.433C150.235 167.269 150.216 164.701 150.157 162.04C150.157 161.896 150.157 161.748 150.157 161.6C150.109 159.604 150.039 157.568 149.961 155.632C149.717 149.584 149.401 144.469 149.401 144.469L138.723 101.995L141.601 93.4868L149.586 87.613L164.35 76.9105C171.552 69.8035 176.293 70.657 178.101 71.4366C178.277 71.5085 178.449 71.5926 178.616 71.6886C178.672 71.7222 178.717 71.7491 178.759 71.7793C178.817 71.812 178.872 71.8502 178.924 71.8936C178.429 72.1795 177.999 72.6049 177.67 73.1335C177.3 73.7351 177.036 74.4212 176.895 75.1497C176.801 75.6012 176.734 76.0606 176.696 76.524C176.66 77.0113 176.646 77.5153 176.646 78.0227C176.666 79.1355 176.745 80.2455 176.884 81.3461C176.884 81.3662 176.884 81.3931 176.884 81.42C176.976 82.2063 177.091 82.9758 177.203 83.6983C177.202 83.7105 177.202 83.723 177.203 83.7352C177.332 84.5787 177.46 85.3582 177.547 86.0303C177.564 86.1513 177.578 86.2622 177.592 86.3663C177.654 86.8105 177.683 87.2602 177.679 87.7105C177.71 88.7976 177.832 89.8783 178.043 90.9363C178.115 91.3799 178.199 91.8537 178.292 92.3477C178.418 93.0197 178.555 93.7523 178.703 94.4982C178.784 94.9082 178.871 95.3316 178.961 95.7516C178.994 95.9196 179.031 96.0877 179.064 96.259L179.12 96.5245C179.716 99.3707 180.363 102.203 180.76 103.917C180.995 104.925 181.144 105.547 181.144 105.547C181.144 105.547 185.359 97.3646 188.723 92.7072C188.774 92.64 188.818 92.5762 188.866 92.5157C189.199 92.0553 189.527 91.6353 189.84 91.2656C190.526 90.4457 191.142 89.861 191.637 89.646C191.743 89.5995 191.845 89.5421 191.942 89.4746C193.319 88.5371 195.542 85.1331 197.621 81.5678C197.825 81.2318 198.024 80.8655 198.226 80.5194C198.688 79.7197 199.135 78.9166 199.558 78.1471C199.883 77.559 200.193 76.9878 200.487 76.4434C201.887 73.8291 202.872 71.8801 202.872 71.8801L204.814 71.7759L205.153 71.7558H205.38L214.199 71.2652C214.199 71.2652 214.58 71.3425 215.207 71.4937C215.24 71.4937 215.274 71.4937 215.31 71.5206C218.44 72.2665 227.133 74.6288 227.665 77.9051C228.314 81.9173 242.337 87.2703 242.337 87.2703C242.522 89.9585 245.956 91.7294 245.956 91.7294C245.956 91.7294 251.156 108.228 249.765 114.694C248.391 121.078 253.342 136.872 253.474 137.315L252.525 138.753L229.05 174.403Z" fill="#E8F5FF"/>
<path opacity="0.1" d="M201.999 56.5671C201.999 56.5671 210.583 53.6436 212.534 59.6619C214.485 65.6802 218.848 89.9852 218.848 89.9852C218.848 89.9852 207.518 92.5491 204.548 89.9852C202.807 88.4635 200.651 87.7867 198.511 88.09L192.104 93.3287L190.212 92.6566C190.212 92.6566 200.462 74.3632 202.69 68.1466C204.918 61.9301 205.671 59.1511 201.999 56.5671Z" fill="black"/>
<path d="M201.626 55.2231C201.626 55.2231 210.216 52.2996 212.176 58.3179C214.135 64.3362 218.49 88.6412 218.49 88.6412C218.49 88.6412 207.163 91.2051 204.19 88.6412C202.449 87.1195 200.294 86.4426 198.156 86.746L191.743 91.9847L189.851 91.3126C189.851 91.3126 200.101 73.0192 202.329 66.8027C204.557 60.5861 205.299 57.8139 201.626 55.2231Z" fill="#E8F5FF"/>
<path opacity="0.1" d="M144.005 152.184C144.005 152.184 150.412 154.08 151.621 158.428C152.83 162.776 146.885 162.887 146.885 162.887C146.885 162.887 143.263 155.195 144.005 152.184Z" fill="black"/>
<path opacity="0.1" d="M167.869 184.289C167.869 184.289 152.178 222.861 155.8 226.541C159.421 230.22 167.869 184.289 167.869 184.289Z" fill="black"/>
<path opacity="0.1" d="M189.504 155.864C189.504 155.864 202.041 193.331 199.533 199.117C197.025 204.904 204.918 199.117 204.918 199.117L189.504 155.864Z" fill="black"/>
<path d="M206.961 192.874C206.961 192.874 164.619 195.327 176.971 211.157C189.322 226.988 214.669 211.829 214.669 211.829L206.961 192.874Z" fill="#FFC1C7"/>
<path opacity="0.1" d="M200.834 42.3767C200.838 46.0227 200.242 49.6336 199.079 53.002C198.69 53.0557 198.301 53.0893 197.926 53.1095C197.366 51.6343 197.666 49.9307 197.677 48.3076C197.688 46.6846 197.19 44.776 195.889 44.3391C193.294 43.4621 191.503 49.2855 188.944 48.2337C186.985 47.434 187.497 43.8653 186.369 41.8055C185.477 40.1757 183.688 39.7154 182.297 38.6938C179.339 36.513 179.428 33.025 178.054 29.7252C176.615 26.2675 173.576 27.289 170.936 29.3287C168.932 30.8812 167.202 32.9612 165.058 34.1978C163.203 35.2731 161.118 35.6629 159.06 35.72C157.794 35.7789 156.527 35.6182 155.299 35.2428C156.743 28.7218 160.114 23.0543 164.783 19.2971C169.452 15.54 175.099 13.9497 180.672 14.8229C186.246 15.6961 191.364 18.9731 195.073 24.0429C198.782 29.1126 200.829 35.629 200.832 42.3767H200.834Z" fill="black"/>
<path d="M170.945 28.438C168.938 29.9905 167.211 32.0672 165.067 33.3105C163.211 34.3824 161.126 34.7722 159.069 34.8293C156.55 34.8965 153.838 34.3656 152.116 32.1814C150.535 30.1652 150.157 27.0637 150.826 24.4191C151.495 21.7746 153.099 19.5803 154.982 17.9909C156.866 16.4015 159.052 15.3027 160.3 13.0277C160.961 11.8248 161.28 10.4067 161.828 9.12644C163.583 5.03025 167.53 2.81245 171.345 2.53691C175.16 2.26136 178.941 3.62564 182.574 5.10417C186.207 6.5827 189.868 8.20908 193.703 8.51487C195.41 8.64256 197.185 8.51487 198.769 9.2911C200.899 10.3294 202.295 12.8127 203.247 15.3396C204.313 18.1891 204.977 21.3008 204.865 24.4124C204.63 31.0557 200.974 37.5747 202.581 43.9391C203.006 45.636 203.804 47.3766 203.379 49.0736C202.757 51.5501 200.095 52.1147 197.943 52.2323C197.383 50.7571 197.683 49.0501 197.694 47.4304C197.705 45.8108 197.207 43.8987 195.908 43.4619C193.311 42.5916 191.519 48.4049 188.967 47.3565C187.022 46.5534 187.525 42.9881 186.395 40.9282C185.502 39.2951 183.71 38.8381 182.322 37.8166C179.364 35.6358 179.453 32.1478 178.079 28.848C176.629 25.3735 173.587 26.395 170.945 28.438Z" fill="#99607E"/>
<path d="M129.887 156.307L127.751 157.201C127.751 157.201 128.591 172.363 125.792 176.711C122.993 181.059 134.984 191.869 134.984 191.869C134.984 191.869 151.419 191.758 151.884 190.189C152.348 188.62 151.044 162.097 151.044 162.097C151.044 162.097 142.222 157.971 142.964 151.395C142.964 151.395 140.271 166.889 136.28 166.22C132.289 165.551 127.757 161.549 129.887 156.307Z" fill="#E8F5FF"/>
<path opacity="0.1" d="M137.01 170.911C140.122 170.911 142.645 168.141 142.645 164.725C142.645 161.308 140.122 158.539 137.01 158.539C133.899 158.539 131.376 161.308 131.376 164.725C131.376 168.141 133.899 170.911 137.01 170.911Z" fill="black"/>
<path d="M143.171 156.754C143.171 156.754 142.051 115.732 132.305 124.872C122.559 134.012 122.464 144.943 124.32 148.172C126.176 151.401 132.126 167.568 132.126 167.568C133.057 168.215 134.102 168.589 135.177 168.658C136.251 168.727 137.324 168.49 138.307 167.965C139.29 167.441 140.155 166.644 140.832 165.64C141.51 164.637 141.979 163.455 142.202 162.191L143.171 156.754Z" fill="#FFC1C7"/>
<path opacity="0.1" d="M203.966 52.8439C203.921 52.6637 203.833 52.5028 203.714 52.3802C203.233 51.8526 202.197 51.6678 200.636 51.8291L200.7 52.7162C202.782 52.5012 203.194 52.9985 203.247 53.0825V53.1665L203.311 53.2774C203.571 53.6964 203.755 54.1758 203.851 54.685C203.948 55.1942 203.954 55.7219 203.871 56.2345C203.415 58.9731 200.613 61.1539 200.585 61.1775L200.518 61.2245L200.476 61.3018C199.267 63.4557 192.429 69.5345 190.641 71.1071L190.484 70.8921C189.683 71.7254 182.647 79.1214 182.266 81.9541C182.02 83.7317 180.352 84.4206 179.747 84.6121C179.109 84.0308 177.038 82.0516 175.96 79.8338C174.95 77.7471 179.017 73.6744 179.375 72.085L178.815 71.3961C178.756 71.6515 173.534 77.5118 174.986 80.5059C176.151 82.9085 178.278 84.965 179.022 85.6437C178.784 88.2379 177.304 103.47 175.028 107.079C172.201 111.565 169.825 134.173 170.088 142.066C170.32 149.079 168.795 162.326 163.701 168.015C162.819 169.043 161.755 169.818 160.589 170.284C159.422 170.749 158.183 170.893 156.964 170.703H156.902H156.841C156.768 170.703 149.379 171.61 143.171 165.326C138.091 160.195 135.213 151.821 134.614 140.43H134.491L134.441 137.113C135.818 136.855 137.059 135.966 137.902 134.633C138.745 133.3 139.124 131.627 138.961 129.965C138.798 128.302 138.104 126.781 137.026 125.72C135.948 124.659 134.569 124.141 133.18 124.274C131.79 124.408 130.498 125.183 129.574 126.437C128.651 127.69 128.168 129.325 128.227 130.997C128.286 132.669 128.883 134.249 129.892 135.404C130.901 136.559 132.244 137.199 133.638 137.191H133.699L133.75 140.487L133.503 140.507C134.119 152.268 137.142 160.968 142.46 166.341C146.502 170.362 151.665 172.391 156.905 172.017C157.277 172.066 157.651 172.09 158.025 172.091C160.427 172.105 162.738 170.99 164.462 168.982C169.828 162.984 171.46 149.251 171.205 141.999C170.925 133.635 173.419 111.841 175.921 107.872C178.373 103.978 179.859 88.8024 180.119 85.8622C181.007 85.5631 183.014 84.6189 183.355 82.1658C183.601 80.3916 188.301 74.9244 191.192 71.8968L191.105 71.7758C192.661 70.4115 197.501 66.1104 199.899 63.3482C200.644 62.4913 201.383 61.6345 202.155 60.8179C203.085 59.83 204.266 58.2607 204.576 56.4058C204.682 55.7936 204.683 55.1617 204.578 54.5492C204.473 53.9367 204.265 53.3563 203.966 52.8439Z" fill="black"/>
<path d="M178.927 85.4321C178.81 85.3346 176.022 82.9387 174.625 80.0556C173.175 77.0616 178.398 71.2046 178.454 70.9492L179.014 71.6381C178.658 73.2241 174.592 77.3002 175.602 79.3836C176.875 82.0147 179.557 84.3165 179.585 84.34L178.927 85.4321Z" fill="#353146"/>
<path d="M190.277 71.7592L189.84 71.0367C189.93 70.9594 198.721 63.3248 200.107 60.855L200.151 60.7811L200.216 60.7307C200.244 60.7072 203.045 58.5297 203.502 55.7877C203.586 55.2757 203.579 54.7483 203.483 54.2395C203.387 53.7307 203.202 53.2518 202.942 52.834L202.878 52.7197V52.6391C202.822 52.5517 202.41 52.0578 200.328 52.2728L200.263 51.3823C201.828 51.2211 202.861 51.4059 203.342 51.9334C203.462 52.0572 203.55 52.2191 203.597 52.4005C203.899 52.9114 204.112 53.4913 204.221 54.1045C204.329 54.7177 204.332 55.3512 204.229 55.9658C203.919 57.824 202.74 59.3933 201.808 60.3778C201.039 61.1944 200.297 62.058 199.555 62.9081C196.742 66.1441 190.585 71.4937 190.277 71.7592Z" fill="#E8F5FF"/>
<path d="M134.08 135.943L133.338 135.96L133.421 141.372L134.162 141.356L134.08 135.943Z" fill="#E8F5FF"/>
<path d="M133.277 136.764C136.268 136.764 138.692 133.853 138.692 130.262C138.692 126.671 136.268 123.76 133.277 123.76C130.285 123.76 127.861 126.671 127.861 130.262C127.861 133.853 130.285 136.764 133.277 136.764Z" fill="#7FB843"/>
<path d="M133.277 135.662C135.761 135.662 137.774 133.244 137.774 130.262C137.774 127.279 135.761 124.862 133.277 124.862C130.792 124.862 128.779 127.279 128.779 130.262C128.779 133.244 130.792 135.662 133.277 135.662Z" fill="#E8F5FF"/>
<path d="M157.672 171.657C157.298 171.658 156.924 171.634 156.552 171.587C151.313 171.957 146.151 169.929 142.107 165.911C136.789 160.535 133.772 151.845 133.151 140.074L134.27 139.99C134.869 151.381 137.746 159.758 142.829 164.886C149.037 171.153 156.424 170.263 156.496 170.263H156.558H156.62C157.839 170.451 159.078 170.308 160.245 169.842C161.412 169.377 162.477 168.602 163.359 167.574C168.451 161.885 169.976 148.639 169.744 141.626C169.464 133.726 171.84 111.118 174.67 106.635C177.147 102.707 178.684 85.0019 178.7 84.8238L178.742 84.3198L179.157 84.2324C179.182 84.2324 181.6 83.6813 181.902 81.5106C182.294 78.6812 189.32 71.2852 190.117 70.4485L190.848 71.4566C187.945 74.4808 183.246 79.9514 183.011 81.729C182.669 84.1887 180.662 85.1296 179.778 85.4253C179.498 88.3689 178.023 103.541 175.58 107.435C173.077 111.404 170.583 133.199 170.863 141.562C171.104 148.814 169.489 162.551 164.124 168.545C162.396 170.558 160.079 171.675 157.672 171.657Z" fill="#353146"/>
<g opacity="0.1">
<path d="M203.219 34.433C203.678 32.3967 204.232 30.3469 204.618 28.2837C204.157 30.357 203.6 32.3967 203.219 34.433Z" fill="black"/>
<path d="M198.536 50.4347C197.977 48.9596 198.276 47.2525 198.287 45.6329C198.298 44.0132 197.8 42.118 196.502 41.6644C193.904 40.7941 192.113 46.6107 189.56 45.559C187.601 44.7558 188.119 41.1906 186.988 39.1307C186.095 37.4976 184.307 37.0406 182.918 36.0191C179.957 33.8383 180.047 30.3503 178.675 27.0505C177.234 23.5894 174.197 24.6109 171.555 26.654C169.548 28.2064 167.821 30.2864 165.677 31.5264C163.821 32.5983 161.736 32.9881 159.679 33.0452C157.174 33.1158 154.448 32.5815 152.726 30.3973C151.4 28.7172 150.921 26.2541 151.195 23.9456C151.148 24.1035 151.106 24.2614 151.064 24.4194C150.392 27.0639 150.784 30.1722 152.354 32.1816C154.075 34.3658 156.802 34.8967 159.307 34.8295C161.367 34.7724 163.449 34.3826 165.307 33.3107C167.457 32.0674 169.184 29.9907 171.185 28.4383C173.827 26.3952 176.867 25.3737 178.306 28.8348C179.677 32.1346 179.59 35.6226 182.549 37.8034C183.948 38.8115 185.726 39.2819 186.621 40.915C187.741 42.9816 187.245 46.5402 189.194 47.3433C191.743 48.3917 193.535 42.5784 196.132 43.4487C197.431 43.8855 197.932 45.8009 197.918 47.4172C197.904 49.0335 197.613 50.7439 198.167 52.2191C200.319 52.1014 202.981 51.547 203.605 49.0604C203.691 48.7035 203.731 48.3329 203.723 47.9616C202.813 49.8467 200.473 50.3306 198.536 50.4347Z" fill="black"/>
</g>
<path opacity="0.1" d="M249.121 133.232L252.371 137.359C252.371 137.359 254.971 160.098 256.27 162.225C257.569 164.352 260.636 172.813 257.756 179.168C257.756 179.168 256.827 182.625 257.384 184.074C257.941 185.522 253.208 192.77 253.208 192.77C253.208 192.77 246.986 199.457 245.684 200.462C244.383 201.466 237.514 209.491 235.194 209.602C232.874 209.713 232.115 213.17 232.115 213.17L219.022 213.728C219.022 213.728 211.789 213.274 210.216 214.501C210.216 214.501 211.056 201.235 202.975 192.538L213.281 188.079C213.281 188.079 217.183 186.063 218.389 183.956C219.148 182.664 220.225 181.69 221.468 181.17C221.468 181.17 224.345 178.717 224.438 177.38C224.53 176.042 227.956 174.403 227.956 174.403L226.016 154.527L227.038 121.528C227.038 121.528 230.287 93.8799 237.159 95.4425C244.03 97.005 249.121 133.232 249.121 133.232Z" fill="black"/>
<path d="M250.241 133.232L253.491 137.359C253.491 137.359 256.091 160.098 257.389 162.225C258.688 164.352 261.756 172.813 258.876 179.168C258.876 179.168 257.949 182.625 258.506 184.074C259.063 185.522 254.327 192.77 254.327 192.77C254.327 192.77 248.105 199.457 246.804 200.462C245.502 201.466 238.634 209.491 236.314 209.602C233.993 209.713 233.235 213.17 233.235 213.17L220.141 213.728C220.141 213.728 212.903 213.274 211.336 214.501C211.336 214.501 212.176 201.235 204.095 192.538L214.401 188.079C214.401 188.079 218.302 186.063 219.509 183.956C220.268 182.664 221.344 181.69 222.588 181.17C222.588 181.17 225.465 178.717 225.557 177.38C225.65 176.042 229.075 174.403 229.075 174.403L227.136 154.527L228.157 121.528C228.157 121.528 231.407 93.8799 238.278 95.4425C245.15 97.005 250.241 133.232 250.241 133.232Z" fill="#E8F5FF"/>
<path opacity="0.1" d="M238.161 166.566C238.161 166.566 247.725 163.542 250.233 167.238C252.74 170.935 238.161 166.566 238.161 166.566Z" fill="black"/>
<path opacity="0.1" d="M235.933 171.637C239.182 174.369 249.211 174.48 249.211 174.48L235.933 171.637Z" fill="black"/>
<path opacity="0.1" d="M240.853 185.293C241.133 185.404 247.747 193.879 250.524 191.315C253.3 188.751 240.853 185.293 240.853 185.293Z" fill="black"/>
<path opacity="0.1" d="M151.78 114.169C151.78 114.169 153.723 130.225 152.766 136.764C151.808 143.303 155.301 151.405 155.301 151.405L151.78 114.169Z" fill="black"/>
<path d="M108.778 120.698C106.538 122.805 104.904 127.792 103.72 133.273C101.654 142.833 100.98 153.918 100.98 153.918C100.98 153.918 83.1506 149.012 84.4493 146.784C85.2665 145.383 84.1694 134.825 83.2541 127.17C82.7083 122.647 82.2213 119.136 82.2213 119.136C82.2213 119.136 114.907 114.899 108.778 120.698Z" fill="#FFCCD0"/>
<path opacity="0.1" d="M108.778 120.251C106.538 122.362 104.904 127.345 103.72 132.826C100.168 134.121 96.3897 134.237 92.7866 133.164C89.1835 132.09 85.8896 129.866 83.2541 126.727C82.7083 122.2 82.2213 118.689 82.2213 118.689C82.2213 118.689 114.907 114.455 108.778 120.251Z" fill="black"/>
<path d="M118.361 108.242C118.363 114.086 116.642 119.743 113.504 124.211C110.366 128.68 106.012 131.671 101.214 132.656C96.4151 133.641 91.481 132.556 87.2846 129.593C83.0882 126.63 79.9002 121.981 78.2847 116.467C76.6692 110.954 76.7304 104.932 78.4575 99.4675C80.1846 94.003 83.4662 89.4483 87.7216 86.6094C91.9769 83.7705 96.9316 82.8304 101.709 83.9556C106.486 85.0808 110.778 88.1987 113.824 92.7575C116.76 97.1488 118.36 102.611 118.361 108.242Z" fill="#FFCCD0"/>
<path opacity="0.1" d="M134.617 263.003H128.739L128.244 250.54L127.726 237.64C127.726 237.64 129.061 237.401 131.189 237.045L132.048 236.907H132.118C132.582 239.525 133.041 242.213 133.484 244.898C134.22 249.664 134.603 254.5 134.628 259.347C134.628 259.683 134.628 260.019 134.628 260.335C134.645 261.232 134.628 262.13 134.617 263.003Z" fill="black"/>
<path d="M133.489 263.003H59.7767C60.0958 262.133 60.3085 261.605 60.3085 261.605C60.3085 261.605 66.2058 230.63 69.2035 217.525C69.2044 217.514 69.2044 217.503 69.2035 217.491C69.578 215.711 70.0302 213.956 70.5582 212.233C70.5923 212.115 70.6364 212.003 70.6897 211.897C72.1732 209 74.0316 205.878 71.4314 201.419C68.8312 196.96 69.7521 177.339 69.7521 177.339C69.7521 177.339 72.9093 160.615 76.2512 151.697C76.7584 150.316 77.4782 149.061 78.3728 148.001C78.6636 147.659 78.9741 147.342 79.302 147.053C79.5513 146.828 79.8111 146.621 80.0801 146.431L80.1333 146.391C81.5372 145.435 83.0961 144.854 84.704 144.687C85.8461 144.544 86.9989 144.582 88.1326 144.802C93.5514 145.756 97.8897 147.352 101.338 149.17C110.684 154.1 113.513 160.706 113.569 160.844L113.592 160.901C113.967 161.953 119.453 177.329 121.429 184.503C121.941 186.372 122.221 187.686 122.109 188.045C121.549 189.826 126.38 212.122 126.38 212.122C126.38 212.122 128.619 222.875 130.858 235.479C130.956 236.003 131.049 236.528 131.138 237.058C131.538 239.347 131.936 241.679 132.319 244.008C133.062 248.807 133.445 253.676 133.464 258.558C133.505 260.079 133.514 261.561 133.489 263.003Z" fill="#FF748E"/>
<path opacity="0.1" d="M84.2645 137.019C84.2645 137.019 79.1789 134.667 79.2405 138.236C79.302 141.804 80.4804 143.511 80.1081 144.032C79.7359 144.553 80.2929 147.675 80.2929 147.675C80.2929 147.675 87.1642 147.675 90.3214 149.382C93.4786 151.089 105.117 154.51 106.603 155.551C108.089 156.593 113.6 161.264 113.6 161.264L114.096 152.42C114.096 152.42 108.4 146.771 99.0541 143.874C89.7084 140.978 84.2645 137.019 84.2645 137.019Z" fill="black"/>
<path d="M84.2645 136.572C84.2645 136.572 79.1789 134.22 79.2405 137.789C79.302 141.357 80.4804 143.064 80.1081 143.585C79.7359 144.106 80.2929 147.228 80.2929 147.228C80.2929 147.228 87.1642 147.228 90.3214 148.938C93.4786 150.649 105.117 154.066 106.603 155.104C108.089 156.143 113.6 160.817 113.6 160.817L114.101 151.999C114.101 151.999 108.405 146.351 99.0597 143.454C89.714 140.558 84.2645 136.572 84.2645 136.572Z" fill="#FF748E"/>
<path opacity="0.1" d="M99.6167 157.856C99.6167 157.856 109.335 170.488 108.839 173.986C108.344 177.484 99.6167 157.856 99.6167 157.856Z" fill="black"/>
<path opacity="0.1" d="M83.8307 203.486C83.8307 203.486 76.7074 211.366 74.6082 211.813C72.509 212.26 76.2176 213.745 78.6303 212.559C81.043 211.372 86.1874 208.251 86.1874 208.251L83.8307 203.486Z" fill="black"/>
<path d="M136.383 263.003H119.772C117.449 260.584 115.251 258.343 113.852 256.995C111.613 254.838 109.998 251.662 108.968 249.109C108.736 248.527 108.534 247.983 108.363 247.489C108.058 246.638 107.789 245.769 107.557 244.885L119.859 236.114C120.538 236.808 121.177 237.558 121.77 238.359L121.919 238.564C122.601 239.532 123.203 240.63 123.256 241.531C123.318 242.579 125.747 246.635 128.23 250.53C130.749 254.492 133.33 258.279 133.5 258.534C133.5 258.534 133.926 259.23 134.62 260.298C135.11 261.071 135.714 261.999 136.383 263.003Z" fill="#FFCCD0"/>
<path opacity="0.1" d="M113.824 92.7576C113.233 94.3571 112.704 96.0171 112.626 97.7981C112.405 102.939 112.763 114.435 108.022 117.016C105.674 118.286 103.16 115.497 100.585 115.43C98.7322 115.382 97.0332 116.794 95.9025 118.558C94.7717 120.322 94.0692 122.416 93.2491 124.412C92.5026 126.223 91.6427 127.964 90.6769 129.62C90.3882 130.127 90.0702 130.608 89.7252 131.062C86.8341 129.597 84.2596 127.359 82.1979 124.519C80.1362 121.679 78.6417 118.312 77.8283 114.673C77.0149 111.034 76.904 107.221 77.5041 103.523C78.1042 99.8253 79.3995 96.3408 81.2912 93.335C83.183 90.3293 85.6212 87.8816 88.4203 86.1785C91.2193 84.4754 94.3052 83.5619 97.4428 83.5075C100.58 83.4531 103.687 84.2593 106.526 85.8646C109.365 87.47 111.861 89.8321 113.824 92.7711V92.7576Z" fill="black"/>
<path d="M112.254 96.8907C112.03 102.032 112.391 113.527 107.647 116.105C105.298 117.375 102.785 114.589 100.21 114.522C98.3571 114.472 96.661 115.886 95.5274 117.647C94.3939 119.408 93.6969 121.505 92.874 123.504C92.1273 125.316 91.2674 127.057 90.3018 128.713C89.7252 129.694 89.0871 130.678 88.1998 131.229C86.6548 132.197 84.7823 131.653 83.1254 131.031C80.9758 130.218 78.8579 129.302 76.7718 128.283C76.8197 127.904 76.844 127.522 76.8446 127.14C76.783 127.281 76.7158 127.412 76.6487 127.553L76.5171 127.829C76.2792 128.333 76.0469 128.837 75.8342 129.354C75.753 129.553 75.6746 129.758 75.6047 129.963C75.3232 130.725 75.1464 131.538 75.0813 132.369C74.9385 134.61 75.8594 136.737 76.6766 138.753C79.8198 146.552 81.7623 155.672 79.3972 163.855C78.3728 167.413 76.5983 170.575 75.3024 174.013C73.037 180.101 72.3702 186.874 73.3907 193.428C74.0372 197.501 75.3332 201.534 75.0141 205.663C74.4543 212.77 69.349 218.059 64.2354 221.695C61.4729 223.651 58.0918 225.392 55.1585 223.846C57.0282 221.225 57.5096 217.599 57.9126 214.178C59.0154 204.848 60.121 195.513 61.2294 186.174C61.6716 182.457 62.1129 178.741 62.5532 175.024C63.3761 168.041 64.2102 160.982 63.6952 153.955C63.3202 148.777 62.2622 143.279 64.1318 138.592C65.1199 136.109 66.8804 134.052 67.429 131.377C67.8796 129.203 67.4598 126.891 67.7565 124.677C67.9188 123.669 68.1938 122.693 68.5737 121.774C69.0576 120.526 69.6892 119.37 70.449 118.339C69.6989 118.077 68.9992 117.718 68.5737 116.965C69.7773 116.024 69.9592 113.904 69.4134 112.311C68.8676 110.718 67.776 109.505 66.7936 108.248C65.8112 106.992 64.8652 105.527 64.742 103.813C64.5041 100.55 67.2191 98.0231 67.6977 94.8039C68.1819 91.5276 66.2674 88.3421 66.4214 85.0255C66.6005 81.0166 69.6681 78.1033 72.6966 76.413C77.2666 73.8731 82.315 72.8298 87.3294 73.3888C91.4102 73.8525 95.3595 75.368 99.4291 75.956C101.884 76.2921 104.372 76.3257 106.81 76.8431C109.248 77.3606 111.691 78.4527 113.407 80.6C117.93 86.262 112.511 90.9228 112.254 96.8907Z" fill="#FFE0D0"/>
<path opacity="0.1" d="M108.47 249.112C107.042 248.369 104.445 248.813 99.9861 247.183C95.5274 245.553 94.6682 238.188 94.6682 238.188V238.164C94.615 237.996 94.2007 236.901 91.3962 233.063C88.2978 228.826 81.6 207.424 81.6 207.424C81.6 207.424 75.6606 199.766 75.8482 196.943C76.0357 194.121 74.793 186.61 74.9161 178.21C75.0393 169.809 88.2866 164.238 88.2866 164.238C113.793 158.811 107.787 194.114 107.107 196.789C106.426 199.464 109.956 206.688 109.956 206.688C109.458 209.833 111.999 214.702 111.999 214.702C111.999 214.702 112.615 219.01 112.741 220.647C112.748 220.722 112.762 220.797 112.783 220.869C113.191 222.411 116.522 223.809 117.877 224.659C119.302 225.553 123.883 233.355 123.883 233.355C124.871 239.085 109.892 249.865 108.47 249.112Z" fill="black"/>
<path d="M109.211 247.768C107.787 247.022 105.187 247.469 100.731 245.836C96.2747 244.202 95.4126 236.843 95.4126 236.843V236.82C95.3623 236.648 94.9452 235.556 92.1407 231.719C89.0423 227.482 82.3445 206.077 82.3445 206.077C82.3445 206.077 76.4051 198.422 76.5899 195.599C76.7746 192.777 75.5375 185.266 75.6606 176.872C75.7838 168.478 89.0227 162.91 89.0227 162.91C114.529 157.483 108.523 192.787 107.843 195.461C107.163 198.136 110.692 205.361 110.692 205.361C110.194 208.506 112.735 213.375 112.735 213.375C112.735 213.375 113.351 217.683 113.48 219.319C113.484 219.395 113.498 219.47 113.519 219.541C113.928 221.084 117.258 222.481 118.616 223.332C120.038 224.222 124.622 232.028 124.622 232.028C125.616 237.747 110.636 248.527 109.211 247.768Z" fill="#FF748E"/>
<path opacity="0.1" d="M89.5265 181.342C89.5265 181.342 100.669 195.455 103.577 195.455C106.485 195.455 89.5265 181.342 89.5265 181.342Z" fill="black"/>
<path d="M109.211 247.768C107.787 247.022 105.187 247.469 100.731 245.836C96.2747 244.202 95.4127 236.843 95.4127 236.843V236.82C98.3655 234.468 105.844 227.824 108.792 225.395C110.866 223.691 112.559 221.188 113.55 219.528C113.958 221.07 117.289 222.468 118.647 223.318C120.068 224.209 124.653 232.015 124.653 232.015C125.616 237.747 110.636 248.527 109.211 247.768Z" fill="#FF748E"/>
<g opacity="0.1">
<path d="M68.5905 117.002C68.6045 117.029 68.6241 117.052 68.6409 117.079C68.7249 116.952 68.8116 116.824 68.9012 116.703C68.8058 116.814 68.7018 116.914 68.5905 117.002Z" fill="black"/>
<path d="M75.0841 132.406C75.2016 130.541 76.0329 128.897 76.811 127.258C76.3016 127.022 75.7922 126.784 75.2884 126.535C75.3364 126.158 75.3607 125.777 75.3611 125.396C74.5746 127.076 73.7182 128.729 73.5978 130.621C73.4551 132.866 74.3759 134.99 75.1932 137.006C78.3392 144.802 80.2789 153.922 77.9138 162.107C76.8866 165.662 75.1148 168.828 73.8189 172.265C71.5544 178.353 70.8886 185.124 71.9101 191.678C72.551 195.754 73.8497 199.783 73.5306 203.913C72.9709 211.02 67.8684 216.309 62.752 219.941C60.6612 221.426 58.2177 222.787 55.8806 222.69C55.6643 223.108 55.4229 223.507 55.1585 223.883C58.0946 225.439 61.4729 223.688 64.2354 221.726C69.3546 218.096 74.4683 212.821 75.0281 205.7C75.3471 201.57 74.0485 197.541 73.4047 193.465C72.3829 186.913 73.0467 180.142 75.308 174.053C76.5955 170.619 78.3868 167.45 79.4028 163.895C81.7679 155.709 79.8254 146.589 76.6822 138.793C75.8678 136.764 74.9413 134.65 75.0841 132.406Z" fill="black"/>
<path d="M113.401 80.6404C113.126 80.3012 112.83 79.9868 112.517 79.6995C115.909 84.9818 111.011 89.4712 110.768 95.1568C110.549 100.298 110.908 111.797 106.163 114.371C103.818 115.645 101.302 112.855 98.7294 112.788C96.8737 112.741 95.1776 114.156 94.044 115.917C92.9104 117.677 92.2135 119.774 91.3934 121.77C90.6453 123.582 89.7845 125.323 88.8184 126.979C88.2586 127.963 87.6037 128.945 86.7136 129.499C85.1742 130.463 83.3017 129.922 81.6419 129.297C80.0279 128.688 78.4288 128.016 76.8446 127.281C76.8413 127.631 76.817 127.98 76.7718 128.326C78.8598 129.348 80.9786 130.264 83.1282 131.075C84.7851 131.7 86.6576 132.241 88.1998 131.277C89.0871 130.722 89.7308 129.738 90.3046 128.753C91.2714 127.099 92.1313 125.359 92.8768 123.548C93.6997 121.552 94.3939 119.452 95.5302 117.691C96.6666 115.93 98.3599 114.519 100.213 114.566C102.788 114.633 105.304 117.422 107.65 116.149C112.394 113.575 112.033 102.076 112.254 96.9344C112.511 90.9564 117.93 86.2991 113.401 80.6404Z" fill="black"/>
</g>
<path opacity="0.1" d="M76.5199 127.832C76.282 128.336 76.0497 128.84 75.837 129.358C75.7558 129.556 75.6774 129.761 75.6074 129.966C74.1408 128.192 70.5694 123.975 68.5765 122.667C69.0611 121.42 69.6927 120.264 70.4518 119.233C70.4518 119.233 75.2016 122.247 76.5199 127.832Z" fill="black"/>
<path d="M76.6514 127.557C75.5515 121.579 70.4518 118.343 70.4518 118.343C69.692 119.373 69.0604 120.53 68.5765 121.777C70.6785 123.158 74.5523 127.789 75.837 129.358L76.6514 127.557Z" fill="#FF748E"/>
</g>
<defs>
<linearGradient id="paint0_linear_62_404" x1="204.33" y1="32.0605" x2="204.33" y2="25.8843" gradientUnits="userSpaceOnUse">
<stop stop-color="#808080" stop-opacity="0.25"/>
<stop offset="0.54" stop-color="#808080" stop-opacity="0.12"/>
<stop offset="1" stop-color="#808080" stop-opacity="0.1"/>
</linearGradient>
<linearGradient id="paint1_linear_62_404" x1="157.532" y1="263.004" x2="157.532" y2="0.000173267" gradientUnits="userSpaceOnUse">
<stop stop-color="#808080" stop-opacity="0.25"/>
<stop offset="0.54" stop-color="#808080" stop-opacity="0.12"/>
<stop offset="1" stop-color="#808080" stop-opacity="0.1"/>
</linearGradient>
<clipPath id="clip0_62_404">
<rect width="304" height="263" fill="white"/>
</clipPath>
</defs>
</svg>
