<svg width="50" height="51" viewBox="0 0 50 51" fill="none" xmlns="http://www.w3.org/2000/svg">
<rect x="0.5" y="0.820312" width="49" height="49" stroke="white"/>
<path d="M32.1043 46.1535H31.7085C31.5838 46.103 31.4711 46.0268 31.3778 45.9299C31.2845 45.833 31.2126 45.7175 31.1668 45.591L26.5418 33.5077C26.3543 33.0077 26.6043 32.4452 27.0835 32.2368C28.5627 31.6952 29.7502 30.5285 30.3752 29.1327C31.7085 26.1535 30.3752 22.6743 27.396 21.341C24.4168 20.0077 20.9377 21.341 19.6043 24.2785C18.9793 25.7577 18.9377 27.4035 19.5002 28.841C20.1252 30.3827 21.3543 31.5702 22.9168 32.1535C23.4168 32.341 23.6877 32.9035 23.5002 33.4243L18.7502 45.5077C18.6668 45.7577 18.4793 45.966 18.2293 46.0702C17.9793 46.1535 17.7085 46.1535 17.4793 46.0702C6.75017 41.9243 1.39601 29.8618 5.54184 19.1327C9.68767 8.40349 21.7502 3.04933 32.4793 7.19516C37.6252 9.19516 41.771 13.1327 44.021 18.1743C45.144 20.6705 45.7591 23.365 45.8307 26.1012C45.9022 28.8374 45.4287 31.5604 44.4377 34.1118C42.3335 39.6535 37.9793 44.0702 32.4585 46.1535H32.1043ZM25.0002 7.79933C14.646 7.52849 6.04184 15.716 5.77101 26.0702C5.67779 29.8562 6.73233 33.5817 8.79602 36.7572C10.8597 39.9327 13.8359 42.4094 17.3335 43.8618L21.271 33.6535C17.4585 31.5702 16.021 26.8202 18.0835 23.0077C19.0775 21.1782 20.7548 19.8163 22.7493 19.2191C24.7438 18.6219 26.8936 18.838 28.7293 19.8202C29.9758 20.4947 31.0168 21.4936 31.7423 22.7111C32.4678 23.9286 32.8507 25.3195 32.8507 26.7368C32.8507 28.1541 32.4678 29.545 31.7423 30.7626C31.0168 31.9801 29.9758 32.9789 28.7293 33.6535L32.6668 43.9243C37.2105 41.887 40.7719 38.146 42.5835 33.5077C46.4168 23.8827 41.7502 12.9868 32.1252 9.13266C29.8579 8.23444 27.4388 7.78173 25.0002 7.79933Z" fill="white"/>
</svg>
