<svg width="50" height="50" viewBox="0 0 50 50" fill="none" xmlns="http://www.w3.org/2000/svg">
<path d="M38.7539 33.8975V50H18.5231V44.1922H15.5511C11.4238 44.1922 8.07568 40.8437 8.07568 36.7085V31.4064H5.53363C5.12784 31.406 4.73872 31.2448 4.45133 30.9582C4.16395 30.6715 4.00168 30.2827 4 29.8766C4 29.6639 4.03808 29.4622 4.11425 29.282L8.07568 19.3009C8.07568 19.3009 8.48507 15.1665 8.85796 13.5836C10.5074 6.46196 18.4414 0 27.045 0C37.5115 0 46 8.49422 46 18.9762C46 25.0294 43.166 30.4244 38.7539 33.8975ZM12.7329 18.8484C12.1736 18.8499 11.6376 19.0731 11.2425 19.4693C10.8474 19.8654 10.6253 20.402 10.6249 20.9617C10.6236 21.5226 10.8449 22.0612 11.2401 22.459C11.6354 22.8569 12.1723 23.0815 12.7329 23.0836C13.0116 23.0838 13.2876 23.0291 13.5452 22.9226C13.8028 22.8161 14.0369 22.6598 14.2341 22.4628C14.4313 22.2657 14.5878 22.0318 14.6947 21.7742C14.8015 21.5166 14.8566 21.2405 14.8568 20.9617C14.8545 20.3999 14.6296 19.8619 14.2315 19.4657C13.8333 19.0696 13.2944 18.8476 12.7329 18.8484ZM31.0992 14.2441C31.0992 14.7738 31.3095 15.2818 31.6839 15.6564C32.0583 16.031 32.566 16.2414 33.0954 16.2414C33.6248 16.2414 34.1326 16.031 34.5069 15.6564C34.8813 15.2818 35.0916 14.7738 35.0916 14.2441C35.0916 13.7144 34.8813 13.2063 34.5069 12.8318C34.1326 12.4572 33.6248 12.2468 33.0954 12.2468C32.566 12.2468 32.0583 12.4572 31.6839 12.8318C31.3095 13.2063 31.0992 13.7144 31.0992 14.2441ZM16.0112 12.0753C16.0113 12.3383 16.0632 12.5988 16.164 12.8418C16.2647 13.0847 16.4124 13.3055 16.5984 13.4913C16.7845 13.6772 17.0053 13.8245 17.2483 13.9249C17.4913 14.0254 17.7516 14.0769 18.0145 14.0766C18.5457 14.0766 19.055 13.8655 19.4305 13.4897C19.8061 13.114 20.0171 12.6043 20.0171 12.0729C20.0171 11.5415 19.8061 11.0319 19.4305 10.6561C19.055 10.2803 18.5457 10.0692 18.0145 10.0692C17.7513 10.0692 17.4907 10.1211 17.2475 10.222C17.0044 10.3228 16.7835 10.4706 16.5974 10.6569C16.4114 10.8432 16.2638 11.0643 16.1633 11.3077C16.0627 11.5511 16.011 11.8119 16.0112 12.0753ZM39.7068 16.4677L42.6082 15.9683V13.174L39.8131 12.6921C39.6803 12.1875 39.4914 11.6994 39.2498 11.237L40.9437 8.83002L38.9784 6.8565L36.6562 8.49343C36.3061 8.28556 35.9384 8.10891 35.5573 7.96552C35.4486 7.92582 35.3399 7.89645 35.2312 7.86311L34.725 4.96158H31.9331L31.4618 7.75594C30.9544 7.88777 30.4638 8.07742 29.9996 8.32116L27.5972 6.62232L25.6161 8.5998L27.2616 10.9139C27.0518 11.2668 26.8744 11.6379 26.7316 12.0229C26.6895 12.1317 26.6626 12.2404 26.6277 12.3492L24.2308 12.7604V11.4283L22.4004 11.1139C22.3161 10.7962 22.1957 10.4891 22.0418 10.1986L23.1637 8.6125L21.8673 7.31773L20.3408 8.39499C20.1166 8.26046 19.8815 8.1452 19.6378 8.05046C19.5736 8.02664 19.5069 8.02108 19.4411 8.00044L19.1094 6.08964H17.287L16.9681 7.92344C16.6467 8.00838 16.3413 8.13381 16.0477 8.28702L14.4593 7.16849L13.1693 8.46326L14.2483 9.99063C14.1134 10.2137 13.9989 10.4486 13.9063 10.6924C13.8817 10.7583 13.8667 10.8234 13.846 10.8917L11.9467 11.2179V13.0509L13.7897 13.3669C13.8738 13.682 13.9896 13.9877 14.1388 14.2782L13.0177 15.8659L14.3094 17.1623L15.8414 16.0827C16.0644 16.2136 16.2953 16.3351 16.546 16.4288C16.6102 16.4534 16.6769 16.4581 16.7411 16.4804L17.0728 18.3912L18.8944 18.3896L19.2142 16.5582C19.5322 16.4718 19.8398 16.3507 20.1313 16.197L21.7134 17.3131L23.0098 16.0191L21.9323 14.4918C22.0617 14.2703 22.1815 14.0425 22.2727 13.794C22.2989 13.7281 22.3036 13.659 22.3267 13.5915L23.7325 13.3486V15.6421L26.5229 16.1223C26.6546 16.632 26.8466 17.121 27.0894 17.5854L25.3955 19.9836L27.3647 21.9595L29.6854 20.3226C30.0321 20.5251 30.3947 20.7045 30.785 20.8481C30.8937 20.8894 31.0024 20.9172 31.1111 20.9521L31.6173 23.8553H34.0403L33.8404 25.0183C33.4905 25.0976 33.1605 25.2358 32.8495 25.4104L31.6911 24.5912L30.7827 25.5009L31.5665 26.6115C31.4317 26.8259 31.3142 27.0537 31.2246 27.2998C31.1889 27.3982 31.1746 27.4967 31.1468 27.5951L29.7409 27.8356V29.1177L31.0865 29.3511C31.1643 29.7036 31.3023 30.033 31.4785 30.3466L30.6597 31.504L31.565 32.4162L32.6749 31.6287C32.8891 31.7652 33.1184 31.8827 33.3652 31.974C33.4635 32.0105 33.5635 32.024 33.6643 32.0518L33.8952 33.4514H35.1813L35.4161 32.1105C35.7684 32.0327 36.0984 31.8946 36.411 31.7184L37.563 32.5368L38.4746 31.6263L37.6908 30.522C37.8288 30.3061 37.9478 30.0759 38.0399 29.8274C38.074 29.7306 38.0883 29.6321 38.116 29.5337L39.51 29.2932V28.0063L38.1716 27.7769C38.0911 27.4282 37.959 27.0934 37.7796 26.7838L38.596 25.624L37.686 24.715L36.5776 25.4946C36.3611 25.3558 36.1306 25.2403 35.8898 25.15C35.7953 25.1159 35.6985 25.1016 35.6018 25.0762L35.3566 23.6766H34.4378L34.8813 21.0585C35.3873 20.9278 35.8763 20.739 36.3388 20.4957L38.7444 22.1945L40.716 20.221L39.0768 17.899C39.2807 17.5513 39.4616 17.1869 39.6068 16.7963C39.6473 16.6868 39.675 16.578 39.71 16.4693L39.7068 16.4677ZM32.6257 28.6485C32.6264 29.1801 32.8379 29.6897 33.2138 30.0652C33.5898 30.4408 34.0994 30.6516 34.6306 30.6514C34.893 30.6509 35.1526 30.5987 35.3947 30.4977C35.6369 30.3968 35.8568 30.2491 36.0418 30.0631C36.2269 29.8771 36.3736 29.6565 36.4734 29.4137C36.5732 29.171 36.6243 28.911 36.6236 28.6485C36.6242 28.3862 36.573 28.1263 36.4731 27.8837C36.3733 27.6411 36.2266 27.4206 36.0415 27.2348C35.8564 27.0489 35.6366 26.9014 35.3945 26.8006C35.1524 26.6998 34.8928 26.6477 34.6306 26.6472C34.0996 26.6468 33.5901 26.8574 33.2142 27.2327C32.8382 27.6079 32.6266 28.1172 32.6257 28.6485Z" fill="white"/>
</svg>
